<svg height="464pt" viewBox="0 0 464 464" width="464pt" xmlns="http://www.w3.org/2000/svg"><path d="m384 320h80v144h-80zm0 0" fill="#ffca55"/><path d="m256 320h80v144h-80zm0 0" fill="#ffca55"/><path d="m208 464h-80v-408h-24l64-56 64 56h-24zm0 0" fill="#ee964b"/><path d="m206.640625 86.640625c-4.242187-4.242187-10-6.640625-16-6.640625-6.242187 0-11.921875 2.558594-16 6.640625-4.082031 4.078125-6.640625 9.757813-6.640625 16 0 6 2.398438 11.757813 6.640625 16l33.359375 33.359375v-64zm0 0" fill="#e38a40"/><path d="m270.640625 134.640625c-4.242187-4.242187-6.640625-10-6.640625-16 0-6.242187 2.558594-11.921875 6.640625-16 4.078125-4.082031 9.757813-6.640625 16-6.640625 6 0 11.757813 2.398438 16 6.640625-4.242187-4.242187-6.640625-10-6.640625-16 0-6.242187 2.558594-11.921875 6.640625-16 4.078125-4.082031 9.757813-6.640625 16-6.640625 6 0 11.757813 2.398438 16 6.640625-4.242187-4.242187-6.640625-10-6.640625-16 0-6.242187 2.558594-11.921875 6.640625-16 4.078125-4.082031 9.757813-6.640625 16-6.640625 6 0 11.757813 2.398438 16 6.640625l97.359375 97.359375v40l-112 112-24-24h-40l-40-40v-48l-73.359375-73.359375c-4.242187-4.242187-6.640625-10-6.640625-16 0-6.242187 2.558594-11.921875 6.640625-16 4.078125-4.082031 9.757813-6.640625 16-6.640625 6 0 11.757813 2.398438 16 6.640625zm0 0" fill="#5dbcd9"/><path d="m0 320h80v144h-80zm0 0" fill="#ffca55"/><g fill="#45639c"><path d="m88 88h16v88h-16zm0 0"/><path d="m88 192h16v16h-16zm0 0"/><path d="m48 120h16v88h-16zm0 0"/><path d="m48 224h16v16h-16zm0 0"/></g><path d="m248 176 48 48-8 8-40-40zm0 0" fill="#3ea0cf"/><path d="m263.996094 127.996094 7.996094-7.996094 40 40-7.996094 7.996094zm0 0" fill="#3ea0cf"/><path d="m295.996094 96 7.996094-8 40 40-7.996094 7.996094zm0 0" fill="#3ea0cf"/><path d="m327.996094 64 7.996094-8 40 40-7.996094 7.996094zm0 0" fill="#3ea0cf"/></svg>