<svg width="227" height="36" viewBox="0 0 227 36" fill="none" xmlns="http://www.w3.org/2000/svg">
<g clip-path="url(#clip0)">
<path d="M12.5118 6.49245C6.30322 6.49245 1.2701 13.7333 1.2701 22.6652V26.3974H23.7535V22.6652C23.7535 13.7332 18.7204 6.49245 12.5118 6.49245Z" fill="#FFDC64"/>
<path d="M24.1859 26.3974H7.32331C7.08451 26.3974 6.89092 26.1189 6.89092 25.7754V22.6652C6.89092 19.7177 7.27175 16.9573 7.93546 14.5797C8.03614 14.2189 8.40573 14.2808 8.45167 14.664L9.36137 22.2547C9.43287 22.8514 9.79268 23.2874 10.2136 23.2874H14.81C15.2309 23.2874 15.5906 22.8515 15.6622 22.2547L17.3619 8.07202C15.8935 7.05994 14.2487 6.49245 12.5118 6.49245C10.856 6.49245 9.28591 7.01318 7.87056 7.938C7.87051 7.93744 7.87036 7.93681 7.87026 7.93632C7.86176 7.94187 7.66313 8.08461 7.66313 8.08461C3.88418 10.6904 1.27009 16.2337 1.27009 22.6652V26.3974H0.837698C0.598899 26.3974 0.405308 26.6759 0.405308 27.0195V27.8124C0.405308 28.0814 0.522264 28.3217 0.700019 28.4054C3.79268 29.8601 7.94445 30.7516 12.5118 30.7516C17.0791 30.7516 21.2309 29.8601 24.3235 28.4054C24.5013 28.3218 24.6182 28.0815 24.6182 27.8124V27.0195C24.6182 26.6759 24.4247 26.3974 24.1859 26.3974Z" fill="#FFC850"/>
<path d="M13.4059 23.2873H11.6178C11.1518 23.2873 10.7696 22.7561 10.7536 22.0861L10.3808 6.53534C10.364 5.83193 10.7558 5.24841 11.245 5.24841H13.7786C14.2679 5.24841 14.6597 5.83186 14.6428 6.53534L14.2701 22.0861C14.2541 22.756 13.8718 23.2873 13.4059 23.2873Z" fill="#FFF082"/>
<path d="M24.3235 27.2096C21.2309 28.2488 17.0791 28.8855 12.5118 28.8855C7.94455 28.8855 3.79268 28.2488 0.700065 27.2096C0.558183 27.1619 0.458187 27.042 0.422313 26.8982C0.416595 26.9387 0.405354 26.9764 0.405354 27.0194V27.8123C0.405354 28.0814 0.52231 28.3217 0.700065 28.4053C3.79268 29.8601 7.94455 30.7516 12.5118 30.7516C17.0791 30.7516 21.2309 29.8601 24.3235 28.4054C24.5013 28.3217 24.6182 28.0815 24.6182 27.8124V27.0195C24.6182 26.9764 24.607 26.9388 24.6013 26.8983C24.5654 27.042 24.4654 27.1619 24.3235 27.2096Z" fill="#FFDC64"/>
<path d="M11.9121 22.0861L11.6475 6.53534C11.6355 5.83193 11.9137 5.24841 12.2611 5.24841H11.2451C10.7558 5.24841 10.3641 5.83186 10.3809 6.53534L10.7536 22.0861C10.7697 22.7561 11.1519 23.2873 11.6179 23.2873H12.5258C12.1948 23.2873 11.9234 22.756 11.9121 22.0861Z" fill="#FFDC64"/>
<path d="M24.1859 25.8143H24.1589V22.6652C24.1589 14.8063 20.3425 7.99468 15.0421 6.3064C15.0139 5.90007 14.893 5.52207 14.6921 5.22289C14.4506 4.86331 14.1262 4.66524 13.7786 4.66524H11.245C10.8974 4.66524 10.573 4.86331 10.3315 5.22289C10.1307 5.52207 10.0097 5.90007 9.98154 6.3064C4.68113 7.99468 0.864732 14.8063 0.864732 22.6652V25.8143H0.837705C0.375745 25.8143 0 26.3549 0 27.0194V27.8124C0 28.3371 0.230735 28.7982 0.574126 28.9597C3.83018 30.4913 8.06978 31.3348 12.5118 31.3348C16.9538 31.3348 21.1934 30.4913 24.4495 28.9597C24.7929 28.7982 25.0236 28.3371 25.0236 27.8124V27.0194C25.0236 26.3549 24.6478 25.8143 24.1859 25.8143ZM10.9146 6.03324C11.0019 5.90323 11.1193 5.83151 11.245 5.83151H13.7786C13.9043 5.83151 14.0216 5.90309 14.109 6.03324C14.1963 6.16332 14.2421 6.33453 14.2377 6.51523L13.865 22.066C13.8564 22.4239 13.6547 22.7042 13.4059 22.7042H11.6178C11.3689 22.7042 11.1673 22.4239 11.1587 22.066L10.786 6.5153C10.7816 6.33446 10.8273 6.16332 10.9146 6.03324ZM24.2129 27.8125C24.2129 27.8281 24.2082 27.8462 24.1976 27.8512C21.0207 29.3455 16.8706 30.1685 12.5118 30.1685C8.15306 30.1685 4.00295 29.3455 0.826073 27.8511C0.815467 27.8461 0.810726 27.8281 0.810726 27.8124V27.0194C0.810726 26.998 0.822847 26.9805 0.837754 26.9805H16.4032C16.627 26.9805 16.8085 26.7195 16.8085 26.3974C16.8085 26.0753 16.6271 25.8142 16.4032 25.8142H1.67546V22.6652C1.67546 16.8043 3.95676 11.5699 7.40137 8.91408L8.28091 17.772C8.30985 18.0629 8.4832 18.2727 8.68173 18.2727C8.70079 18.2727 8.7201 18.2708 8.73955 18.2668C8.96119 18.2213 9.1152 17.9259 9.08353 17.6071L8.16713 8.37802C8.75074 8.01043 9.36275 7.71448 9.99831 7.49764L10.3485 22.1063C10.3722 23.0956 10.9298 23.8705 11.6179 23.8705H13.4059C14.094 23.8705 14.6515 23.0956 14.6753 22.1063L15.0255 7.49771C15.661 7.71462 16.273 8.01057 16.8566 8.37809L15.9402 17.6072C15.9086 17.926 16.0626 18.2213 16.2842 18.2669C16.3037 18.2708 16.323 18.2728 16.342 18.2728C16.5405 18.2728 16.7139 18.0629 16.7429 17.7721L17.6224 8.91415C21.067 11.5699 23.3483 16.8043 23.3483 22.6652V25.8143H20.7269C20.5031 25.8143 20.3216 26.0753 20.3216 26.3974C20.3216 26.7195 20.503 26.9806 20.7269 26.9806H24.186C24.2009 26.9806 24.213 26.998 24.213 27.0195V27.8125H24.2129Z" fill="black"/>
<path d="M18.9975 25.8142H18.1327C17.9089 25.8142 17.7273 26.0753 17.7273 26.3974C17.7273 26.7195 17.9088 26.9806 18.1327 26.9806H18.9975C19.2213 26.9806 19.4028 26.7195 19.4028 26.3974C19.4028 26.0753 19.2214 25.8142 18.9975 25.8142Z" fill="black"/>
<path d="M9.33059 20.0944C9.29892 19.7755 9.09374 19.554 8.872 19.5995C8.65036 19.6451 8.49635 19.9405 8.52802 20.2593L8.65158 21.5037C8.68051 21.7945 8.85387 22.0044 9.0524 22.0044C9.07146 22.0044 9.09076 22.0025 9.11022 21.9985C9.33186 21.953 9.48586 21.6576 9.45419 21.3388L9.33059 20.0944Z" fill="black"/>
<path d="M16.1517 19.5995C15.93 19.5538 15.7248 19.7755 15.6931 20.0943L15.5695 21.3387C15.5379 21.6576 15.6919 21.9529 15.9135 21.9985C15.9329 22.0024 15.9523 22.0044 15.9713 22.0044C16.1698 22.0044 16.3432 21.7944 16.3721 21.5036L16.4957 20.2592C16.5273 19.9404 16.3733 19.645 16.1517 19.5995Z" fill="black"/>
</g>
<path d="M31.7721 27C31.6121 27 31.4681 26.944 31.3401 26.832C31.2281 26.704 31.1721 26.56 31.1721 26.4V10.8C31.1721 10.624 31.2281 10.48 31.3401 10.368C31.4681 10.256 31.6121 10.2 31.7721 10.2H34.9401C35.1161 10.2 35.2601 10.256 35.3721 10.368C35.4841 10.48 35.5401 10.624 35.5401 10.8V23.376H42.8121C42.9881 23.376 43.1321 23.44 43.2441 23.568C43.3561 23.68 43.4121 23.824 43.4121 24V26.4C43.4121 26.56 43.3561 26.704 43.2441 26.832C43.1321 26.944 42.9881 27 42.8121 27H31.7721ZM54.5695 27.24C52.2815 27.24 50.4895 26.688 49.1935 25.584C47.9135 24.464 47.2335 22.848 47.1535 20.736C47.1375 20.304 47.1295 19.6 47.1295 18.624C47.1295 17.632 47.1375 16.912 47.1535 16.464C47.2335 14.384 47.9295 12.784 49.2415 11.664C50.5535 10.528 52.3295 9.96 54.5695 9.96C55.9775 9.96 57.2415 10.2 58.3615 10.68C59.4815 11.144 60.3615 11.816 61.0015 12.696C61.6575 13.56 61.9935 14.576 62.0095 15.744V15.792C62.0095 15.92 61.9535 16.032 61.8415 16.128C61.7455 16.208 61.6335 16.248 61.5055 16.248H58.2655C58.0575 16.248 57.8975 16.208 57.7855 16.128C57.6735 16.032 57.5775 15.864 57.4975 15.624C57.2735 14.808 56.9215 14.24 56.4415 13.92C55.9615 13.584 55.3295 13.416 54.5455 13.416C52.6575 13.416 51.6815 14.472 51.6175 16.584C51.6015 17.016 51.5935 17.68 51.5935 18.576C51.5935 19.472 51.6015 20.152 51.6175 20.616C51.6815 22.728 52.6575 23.784 54.5455 23.784C55.3295 23.784 55.9695 23.616 56.4655 23.28C56.9615 22.928 57.3055 22.36 57.4975 21.576C57.5615 21.336 57.6495 21.176 57.7615 21.096C57.8735 21 58.0415 20.952 58.2655 20.952H61.5055C61.6495 20.952 61.7695 21 61.8655 21.096C61.9775 21.192 62.0255 21.312 62.0095 21.456C61.9935 22.624 61.6575 23.648 61.0015 24.528C60.3615 25.392 59.4815 26.064 58.3615 26.544C57.2415 27.008 55.9775 27.24 54.5695 27.24ZM73.8211 27.24C71.5331 27.24 69.7411 26.688 68.4451 25.584C67.1651 24.464 66.4851 22.848 66.4051 20.736C66.3891 20.304 66.3811 19.6 66.3811 18.624C66.3811 17.632 66.3891 16.912 66.4051 16.464C66.4851 14.384 67.1811 12.784 68.4931 11.664C69.8051 10.528 71.5811 9.96 73.8211 9.96C75.2291 9.96 76.4931 10.2 77.6131 10.68C78.7331 11.144 79.6131 11.816 80.2531 12.696C80.9091 13.56 81.2451 14.576 81.2611 15.744V15.792C81.2611 15.92 81.2051 16.032 81.0931 16.128C80.9971 16.208 80.8851 16.248 80.7571 16.248H77.5171C77.3091 16.248 77.1491 16.208 77.0371 16.128C76.9251 16.032 76.8291 15.864 76.7491 15.624C76.5251 14.808 76.1731 14.24 75.6931 13.92C75.2131 13.584 74.5811 13.416 73.7971 13.416C71.9091 13.416 70.9331 14.472 70.8691 16.584C70.8531 17.016 70.8451 17.68 70.8451 18.576C70.8451 19.472 70.8531 20.152 70.8691 20.616C70.9331 22.728 71.9091 23.784 73.7971 23.784C74.5811 23.784 75.2211 23.616 75.7171 23.28C76.2131 22.928 76.5571 22.36 76.7491 21.576C76.8131 21.336 76.9011 21.176 77.0131 21.096C77.1251 21 77.2931 20.952 77.5171 20.952H80.7571C80.9011 20.952 81.0211 21 81.1171 21.096C81.2291 21.192 81.2771 21.312 81.2611 21.456C81.2451 22.624 80.9091 23.648 80.2531 24.528C79.6131 25.392 78.7331 26.064 77.6131 26.544C76.4931 27.008 75.2291 27.24 73.8211 27.24Z" fill="#3945AE"/>
<path d="M92.0406 32.28C90.5206 32.28 89.2886 32.032 88.3446 31.536C87.4006 31.04 86.7206 30.472 86.3046 29.832C85.9046 29.192 85.7046 28.656 85.7046 28.224C85.7046 28.08 85.7686 27.952 85.8966 27.84C86.0246 27.728 86.1686 27.672 86.3286 27.672H89.3766C89.5366 27.672 89.6566 27.704 89.7366 27.768C89.8326 27.848 89.9206 27.976 90.0006 28.152C90.1606 28.52 90.3766 28.808 90.6486 29.016C90.9206 29.24 91.3446 29.352 91.9206 29.352C92.6566 29.352 93.2006 29.168 93.5526 28.8C93.9046 28.448 94.0806 27.848 94.0806 27V25.392C93.2646 26.288 92.0966 26.736 90.5766 26.736C88.9606 26.736 87.7206 26.264 86.8566 25.32C86.0086 24.36 85.5446 22.976 85.4646 21.168L85.4406 20.52C85.4406 18.584 85.8726 17.064 86.7366 15.96C87.6006 14.84 88.8806 14.28 90.5766 14.28C91.3926 14.28 92.1126 14.44 92.7366 14.76C93.3606 15.064 93.8886 15.48 94.3206 16.008V15.12C94.3206 14.944 94.3766 14.8 94.4886 14.688C94.6166 14.576 94.7606 14.52 94.9206 14.52H97.6806C97.8566 14.52 98.0006 14.584 98.1126 14.712C98.2406 14.824 98.3046 14.96 98.3046 15.12V26.664C98.3046 28.488 97.7606 29.88 96.6726 30.84C95.5846 31.8 94.0406 32.28 92.0406 32.28ZM91.8726 23.616C92.5926 23.616 93.1286 23.4 93.4806 22.968C93.8326 22.52 94.0326 21.96 94.0806 21.288C94.0966 21.176 94.1046 20.928 94.1046 20.544C94.1046 20.176 94.0966 19.936 94.0806 19.824C94.0486 19.152 93.8486 18.6 93.4806 18.168C93.1286 17.72 92.5926 17.496 91.8726 17.496C91.1206 17.496 90.5766 17.72 90.2406 18.168C89.9046 18.616 89.7206 19.232 89.6886 20.016L89.6646 20.544C89.6646 21.488 89.8246 22.24 90.1446 22.8C90.4646 23.344 91.0406 23.616 91.8726 23.616ZM104.132 27C103.956 27 103.812 26.944 103.7 26.832C103.588 26.72 103.532 26.576 103.532 26.4V15.12C103.532 14.944 103.588 14.8 103.7 14.688C103.812 14.576 103.956 14.52 104.132 14.52H106.892C107.068 14.52 107.212 14.584 107.324 14.712C107.452 14.824 107.516 14.96 107.516 15.12V16.08C108.396 15.04 109.58 14.52 111.068 14.52H112.124C112.3 14.52 112.444 14.576 112.556 14.688C112.668 14.8 112.724 14.944 112.724 15.12V17.592C112.724 17.752 112.668 17.896 112.556 18.024C112.444 18.136 112.3 18.192 112.124 18.192H109.796C109.14 18.192 108.628 18.376 108.26 18.744C107.908 19.096 107.732 19.6 107.732 20.256V26.4C107.732 26.576 107.668 26.72 107.54 26.832C107.428 26.944 107.284 27 107.108 27H104.132ZM122.617 27.24C120.633 27.24 119.105 26.768 118.033 25.824C116.961 24.88 116.377 23.552 116.281 21.84C116.265 21.632 116.257 21.272 116.257 20.76C116.257 20.248 116.265 19.888 116.281 19.68C116.377 17.984 116.977 16.664 118.081 15.72C119.185 14.76 120.697 14.28 122.617 14.28C124.553 14.28 126.073 14.76 127.177 15.72C128.281 16.664 128.881 17.984 128.977 19.68C128.993 19.888 129.001 20.248 129.001 20.76C129.001 21.272 128.993 21.632 128.977 21.84C128.881 23.552 128.297 24.88 127.225 25.824C126.153 26.768 124.617 27.24 122.617 27.24ZM122.617 24.312C123.321 24.312 123.841 24.104 124.177 23.688C124.513 23.256 124.705 22.6 124.753 21.72C124.769 21.56 124.777 21.24 124.777 20.76C124.777 20.28 124.769 19.96 124.753 19.8C124.705 18.936 124.505 18.288 124.153 17.856C123.817 17.424 123.305 17.208 122.617 17.208C121.289 17.208 120.585 18.072 120.505 19.8L120.481 20.76L120.505 21.72C120.537 22.6 120.721 23.256 121.057 23.688C121.409 24.104 121.929 24.312 122.617 24.312ZM138.369 27.24C136.961 27.24 135.825 26.768 134.961 25.824C134.097 24.864 133.665 23.528 133.665 21.816V15.12C133.665 14.944 133.721 14.8 133.833 14.688C133.945 14.576 134.089 14.52 134.265 14.52H137.265C137.441 14.52 137.585 14.576 137.697 14.688C137.825 14.8 137.889 14.944 137.889 15.12V21.672C137.889 23.24 138.585 24.024 139.977 24.024C140.649 24.024 141.177 23.816 141.561 23.4C141.945 22.984 142.137 22.408 142.137 21.672V15.12C142.137 14.944 142.193 14.8 142.305 14.688C142.433 14.576 142.577 14.52 142.737 14.52H145.737C145.913 14.52 146.057 14.576 146.169 14.688C146.281 14.8 146.337 14.944 146.337 15.12V26.4C146.337 26.56 146.281 26.704 146.169 26.832C146.057 26.944 145.913 27 145.737 27H142.953C142.793 27 142.649 26.944 142.521 26.832C142.409 26.704 142.353 26.56 142.353 26.4V25.488C141.521 26.656 140.193 27.24 138.369 27.24ZM152.16 31.56C152 31.56 151.856 31.504 151.728 31.392C151.616 31.28 151.56 31.136 151.56 30.96V15.12C151.56 14.944 151.616 14.8 151.728 14.688C151.856 14.576 152 14.52 152.16 14.52H154.872C155.048 14.52 155.192 14.576 155.304 14.688C155.416 14.8 155.472 14.944 155.472 15.12V15.984C156.336 14.848 157.576 14.28 159.192 14.28C160.76 14.28 161.984 14.768 162.864 15.744C163.744 16.72 164.224 18.096 164.304 19.872C164.32 20.08 164.328 20.376 164.328 20.76C164.328 21.144 164.32 21.44 164.304 21.648C164.24 23.376 163.76 24.744 162.864 25.752C161.968 26.744 160.744 27.24 159.192 27.24C157.624 27.24 156.456 26.704 155.688 25.632V30.96C155.688 31.136 155.632 31.28 155.52 31.392C155.408 31.504 155.264 31.56 155.088 31.56H152.16ZM157.896 24.024C158.648 24.024 159.184 23.8 159.504 23.352C159.84 22.904 160.032 22.288 160.08 21.504C160.112 21.184 160.128 20.936 160.128 20.76C160.128 20.584 160.112 20.336 160.08 20.016C160.032 19.232 159.84 18.616 159.504 18.168C159.184 17.72 158.648 17.496 157.896 17.496C157.16 17.496 156.616 17.728 156.264 18.192C155.928 18.64 155.736 19.224 155.688 19.944L155.664 20.832L155.688 21.744C155.72 22.4 155.92 22.944 156.288 23.376C156.656 23.808 157.192 24.024 157.896 24.024Z" fill="#041418" fill-opacity="0.65"/>
<defs>
<clipPath id="clip0">
<rect width="25.0236" height="36" fill="white"/>
</clipPath>
</defs>
</svg>
