<svg height="472pt" viewBox="0 -3 472 471" width="472pt" xmlns="http://www.w3.org/2000/svg"><path d="m416 392.5h16c17.679688 0 32 14.320312 32 32v40h-80v-40c0-17.679688 14.320312-32 32-32zm0 0" fill="#ee964b"/><path d="m456 360.5c0 17.671875-14.328125 32-32 32s-32-14.328125-32-32 14.328125-32 32-32 32 14.328125 32 32zm0 0" fill="#ee964b"/><path d="m304 424.5c0-17.679688 14.320312-32 32-32h16c17.679688 0 32 14.320312 32 32v40h-80zm0 0" fill="#ee964b"/><path d="m376 360.5c0 17.671875-14.328125 32-32 32s-32-14.328125-32-32 14.328125-32 32-32 32 14.328125 32 32zm0 0" fill="#ee964b"/><path d="m192 72.5v-40c0-17.679688 14.320312-32 32-32h64c17.679688 0 32 14.320312 32 32v32c0 17.679688-14.320312 32-32 32h-120zm0 0" fill="#dedee6"/><path d="m256 392.5h16c17.679688 0 32 14.320312 32 32v40h-80v-40c0-17.679688 14.320312-32 32-32zm0 0" fill="#ee964b"/><path d="m296 360.5c0 17.671875-14.328125 32-32 32s-32-14.328125-32-32 14.328125-32 32-32 32 14.328125 32 32zm0 0" fill="#ee964b"/><path d="m138.71875 136.5c8.480469 0 16.640625 3.359375 22.640625 9.359375l46.640625 46.640625h64v40h-88l-48-48v96l32 184h-48l-32-160v160h-48v-176h-40v-104c0-26.480469 21.519531-48 48-48zm0 0" fill="#5dbcd9"/><path d="m136 88.5c0 26.507812-21.492188 48-48 48s-48-21.492188-48-48 21.492188-48 48-48 48 21.492188 48 48zm0 0" fill="#5dbcd9"/><path d="m296 232.5 24-40 32-32 32 32 32-56 32 40 24 56zm0 0" fill="#ffca55"/><g fill="#45639c"><path d="m72 160.5h32v16h-32zm0 0"/><path d="m80 168.5h16v80h-16zm0 0"/><path d="m296 224.5h176v16h-176zm0 0"/><path d="m312 192.5h16v40h-16zm0 0"/><path d="m344 160.5h16v72h-16zm0 0"/><path d="m376 192.5h16v40h-16zm0 0"/><path d="m408 136.5h16v96h-16zm0 0"/><path d="m440 176.5h16v56h-16zm0 0"/><path d="m216 24.5h80v16h-80zm0 0"/><path d="m216 56.5h80v16h-80zm0 0"/><path d="m360 24.5h112v16h-112zm0 0"/><path d="m360 56.5h112v16h-112zm0 0"/><path d="m432 88.5h40v16h-40zm0 0"/><path d="m360 256.5h112v16h-112zm0 0"/><path d="m266.339844 186.84375 72-72 11.3125 11.3125-72 72zm0 0"/><path d="m392 288.5h16v16h-16zm0 0"/><path d="m424 288.5h16v16h-16zm0 0"/><path d="m456 288.5h16v16h-16zm0 0"/></g><path d="m32 176.5h8v112h-8zm0 0" fill="#3ea0cf"/></svg>