<svg width="120" height="115" viewBox="0 0 120 115" fill="none" xmlns="http://www.w3.org/2000/svg">
<g id="worker 1">
<path id="Vector" d="M84.8747 0H14.3121C11.127 0 8.53571 2.48328 8.53571 5.53572V103.508C8.53571 106.56 11.127 109.043 14.3121 109.043H84.8742C88.0592 109.043 90.6506 106.56 90.6506 103.508V5.53572C90.6506 2.48328 88.0594 0 84.8747 0Z" fill="#EBEEF2"/>
<path id="Vector_2" d="M84.8747 0H78.2454C81.4303 0 84.0218 2.48328 84.0218 5.53572V103.508C84.0218 106.56 81.4305 109.043 78.2454 109.043H84.8747C88.0596 109.043 90.6511 106.56 90.6511 103.508V5.53572C90.6506 2.48328 88.0594 0 84.8747 0Z" fill="#D1D6DE"/>
<g id="Group">
<path id="Vector_3" d="M74.7865 50.5746H24.4001C23.4293 50.5746 22.6423 49.8206 22.6423 48.8901C22.6423 47.9595 23.4293 47.2055 24.4001 47.2055H74.7865C75.7573 47.2055 76.5443 47.9595 76.5443 48.8901C76.5443 49.8206 75.7573 50.5746 74.7865 50.5746Z" fill="#656D88"/>
<path id="Vector_4" d="M74.7865 64.7497H24.4001C23.4293 64.7497 22.6423 63.9957 22.6423 63.0651C22.6423 62.1346 23.4293 61.3806 24.4001 61.3806H74.7865C75.7573 61.3806 76.5443 62.1346 76.5443 63.0651C76.5443 63.9957 75.7573 64.7497 74.7865 64.7497Z" fill="#656D88"/>
<path id="Vector_5" d="M74.7865 78.9253H24.4001C23.4293 78.9253 22.6423 78.1712 22.6423 77.2407C22.6423 76.3101 23.4293 75.5561 24.4001 75.5561H74.7865C75.7573 75.5561 76.5443 76.3101 76.5443 77.2407C76.5443 78.1712 75.7573 78.9253 74.7865 78.9253Z" fill="#656D88"/>
<path id="Vector_6" d="M74.7865 93.1006H24.4001C23.4293 93.1006 22.6423 92.3466 22.6423 91.416C22.6423 90.4855 23.4293 89.7314 24.4001 89.7314H74.7865C75.7573 89.7314 76.5443 90.4855 76.5443 91.416C76.5443 92.3466 75.7573 93.1006 74.7865 93.1006Z" fill="#656D88"/>
<path id="Vector_7" d="M32.6372 32.6196C32.025 32.6196 31.4304 32.313 31.1067 31.7661C30.6277 30.9568 30.9237 29.9288 31.7679 29.4694L39.1657 25.4464C40.0099 24.9873 41.0831 25.271 41.5622 26.0803C42.0412 26.8896 41.7452 27.9176 40.901 28.3769L33.5032 32.3999C33.2292 32.5488 32.9311 32.6196 32.6372 32.6196Z" fill="#656D88"/>
<path id="Vector_8" d="M53.2905 32.6196C52.9966 32.6196 52.6985 32.549 52.4245 32.3999L45.0267 28.3769C44.1823 27.9176 43.8862 26.8896 44.3655 26.0803C44.8448 25.271 45.9176 24.9871 46.762 25.4464L54.1598 29.4694C55.0043 29.9288 55.3003 30.9568 54.821 31.7661C54.4973 32.3125 53.9025 32.6196 53.2905 32.6196Z" fill="#656D88"/>
<path id="Vector_9" d="M58.1831 31.5902C57.829 31.5902 57.4716 31.488 57.1617 31.2755C56.3721 30.734 56.19 29.6817 56.7551 28.9252L66.09 16.4234C66.6551 15.6672 67.7531 15.4922 68.5423 16.0337C69.3319 16.5753 69.514 17.6276 68.9489 18.3841L59.614 30.8858C59.2709 31.3451 58.7309 31.5902 58.1831 31.5902Z" fill="#656D88"/>
</g>
<path id="Vector_10" d="M29.7052 27.6155C26.8772 27.6155 24.5766 29.8203 24.5766 32.5304C24.5766 35.2405 26.8772 37.4455 29.7052 37.4455C32.5331 37.4455 34.8338 35.2408 34.8338 32.5304C34.834 29.8205 32.5331 27.6155 29.7052 27.6155Z" fill="#5C9CEE"/>
<path id="Vector_11" d="M69.4814 9.86372C66.6534 9.86372 64.3528 12.0685 64.3528 14.7788C64.3528 17.4888 66.6534 19.6938 69.4814 19.6938C72.3094 19.6938 74.61 17.489 74.61 14.7788C74.61 12.0685 72.3094 9.86372 69.4814 9.86372Z" fill="#9FD479"/>
<path id="Vector_12" d="M42.964 20.4008C40.136 20.4008 37.8352 22.6056 37.8352 25.316C37.8352 28.0259 40.1358 30.2309 42.964 30.2309C45.792 30.2309 48.0926 28.0261 48.0926 25.316C48.0926 22.6058 45.792 20.4008 42.964 20.4008Z" fill="#F2DF33"/>
<path id="Vector_13" d="M56.2226 27.6155C53.3946 27.6155 51.094 29.8203 51.094 32.5304C51.094 35.2405 53.3946 37.4455 56.2226 37.4455C59.0505 37.4455 61.3512 35.2408 61.3512 32.5304C61.3514 29.8205 59.0505 27.6155 56.2226 27.6155Z" fill="#ED5575"/>
<path id="Vector_14" d="M109.973 88.0424L106.2 87.4898C105.987 86.9126 105.743 86.3488 105.469 85.7985L107.728 82.8517C108.241 82.1801 108.169 81.2502 107.555 80.6617L102.152 75.4845C101.538 74.8982 100.568 74.8264 99.8695 75.3183L96.7922 77.4835C96.218 77.2207 95.6297 76.9871 95.0273 76.7827L94.4508 73.1688C94.3195 72.3444 93.5813 71.738 92.7117 71.738H85.0734C84.2039 71.738 83.468 72.3444 83.3344 73.1688L82.7578 76.7827C82.1555 76.9871 81.5672 77.2207 80.993 77.4835L77.918 75.3183C77.2172 74.8264 76.2469 74.8982 75.6328 75.4845L70.2305 80.6617C69.6187 81.2502 69.5437 82.1801 70.057 82.8517L72.3164 85.7985C72.0445 86.3488 71.7984 86.9126 71.5875 87.4898L67.8141 88.0424C66.9562 88.1682 66.3211 88.8757 66.3211 89.709V97.029C66.3211 97.8623 66.9562 98.5698 67.8141 98.6956L71.5875 99.2481C71.7984 99.8254 72.0445 100.389 72.3164 100.939L70.057 103.889C69.5437 104.558 69.6187 105.488 70.2305 106.076L75.6328 111.254C76.2469 111.842 77.2172 111.912 77.918 111.42L80.993 109.254C81.5672 109.517 82.1555 109.751 82.7578 109.955L83.3344 113.569C83.468 114.394 84.2039 115 85.0734 115H92.7117C93.5813 115 94.3195 114.394 94.4508 113.569L95.0273 109.955C95.6297 109.751 96.218 109.517 96.7922 109.254L99.8695 111.42C100.568 111.912 101.538 111.84 102.152 111.254L107.555 106.076C108.169 105.488 108.241 104.558 107.728 103.889L105.469 100.939C105.743 100.389 105.987 99.8254 106.2 99.2481L109.973 98.6956C110.831 98.5698 111.464 97.8623 111.464 97.029V89.709C111.464 88.8757 110.832 88.1682 109.973 88.0424ZM99.3002 93.3701C99.3002 98.8775 94.6409 103.343 88.894 103.343C83.1448 103.343 78.4854 98.8775 78.4854 93.3701C78.4854 87.8605 83.1448 83.3952 88.894 83.3952C94.6409 83.3952 99.3002 87.8605 99.3002 93.3701Z" fill="#5C9CEE"/>
<path id="Vector_15" d="M71.0299 65.5298L68.1401 64.7549C67.9643 64.3933 67.7698 64.0384 67.5635 63.6925C67.3549 63.3466 67.1299 63.0074 66.8909 62.6817L67.6362 59.8943C67.833 59.1621 67.4956 58.3939 66.8135 58.0166L60.9237 54.7575C60.2393 54.3802 59.3768 54.4857 58.8143 55.0136L56.6674 57.0261C55.8354 56.9542 54.9987 56.9542 54.169 57.0238L52.0245 55.0136C51.462 54.4857 50.5995 54.3802 49.9151 54.7575L44.0276 58.0166C43.3432 58.3939 43.0057 59.1621 43.2026 59.8943L43.9479 62.6795C43.4698 63.3331 43.0526 64.0271 42.701 64.7549L39.8088 65.5298C39.0495 65.7319 38.5221 66.3968 38.5221 67.1515V73.6699C38.5221 74.4245 39.0495 75.0894 39.8088 75.2915L42.6987 76.0664C42.8745 76.4281 43.069 76.7829 43.2776 77.1288C43.4838 77.4747 43.7088 77.8116 43.9479 78.1396L43.2026 80.927C43.0057 81.6592 43.3432 82.4274 44.0276 82.8047L49.9151 86.0638C50.5995 86.4411 51.462 86.3378 52.0245 85.8077L54.1713 83.7952C55.0034 83.8671 55.8401 83.8671 56.6698 83.7975L58.8143 85.8077C59.1518 86.1244 59.5948 86.2884 60.0448 86.2884C60.3448 86.2884 60.6495 86.2143 60.9237 86.0638L66.8135 82.8047C67.4956 82.4274 67.833 81.6592 67.6362 80.927L66.8909 78.1418C67.369 77.4882 67.7885 76.7942 68.1377 76.0664L71.0299 75.2915C71.7916 75.0894 72.3166 74.4245 72.3166 73.6699V67.1515C72.3166 66.3968 71.7916 65.7319 71.0299 65.5298ZM58.8166 76.0505C55.5659 77.8474 51.4104 76.7805 49.5354 73.6674C47.658 70.5521 48.7713 66.5697 52.0221 64.7706C55.2729 62.9715 59.4284 64.0406 61.3034 67.1537C63.1809 70.269 62.0677 74.2514 58.8166 76.0505Z" fill="#ED5575"/>
</g>
</svg>
